<?xml version="1.0" standalone="no"?>
<!DOCTYPE svg PUBLIC "-//W3C//DTD SVG 20010904//EN"
 "http://www.w3.org/TR/2001/REC-SVG-20010904/DTD/svg10.dtd">
<svg version="1.0" xmlns="http://www.w3.org/2000/svg"
 width="453.000000pt" height="453.000000pt" viewBox="0 0 453.000000 453.000000"
 preserveAspectRatio="xMidYMid meet">
<metadata>
Created by potrace 1.11, written by Peter Selinger 2001-2013
</metadata>
<g transform="translate(0.000000,453.000000) scale(0.100000,-0.100000)"
fill="#000000" stroke="none">
<path d="M2179 4497 c-24 -16 -49 -51 -86 -122 -56 -109 -48 -103 -163 -120
-25 -3 -57 -8 -73 -10 -55 -8 -112 -58 -123 -108 -10 -44 -6 -88 10 -112 9
-14 15 -25 14 -26 -46 -10 -101 -8 -126 5 -35 18 -87 20 -146 6 -38 -8 -40 -7
-95 45 -65 62 -98 77 -152 71 -75 -9 -120 -63 -133 -160 -4 -27 -9 -53 -12
-58 -11 -18 -93 -51 -242 -100 -180 -58 -395 -140 -531 -204 -51 -24 -98 -44
-103 -44 -6 0 -7 -16 -4 -37 3 -21 8 -67 11 -103 13 -132 46 -356 69 -465 92
-432 203 -756 386 -1130 43 -88 94 -186 114 -217 19 -32 32 -58 30 -58 -3 0 6
-15 20 -33 15 -19 26 -37 26 -40 0 -4 18 -34 40 -68 22 -34 40 -65 40 -70 0
-4 -70 -49 -156 -100 -85 -51 -167 -104 -181 -118 -88 -89 -88 -234 1 -323 56
-55 143 -76 221 -53 22 7 115 58 207 113 92 56 171 102 176 102 4 0 48 -48 97
-107 106 -126 364 -389 485 -493 115 -99 126 -108 200 -165 36 -27 70 -53 75
-58 38 -32 179 -127 189 -127 14 0 284 202 406 305 160 134 489 469 592 604
18 22 36 41 41 41 5 0 88 -47 184 -105 96 -58 184 -107 196 -110 81 -18 136
-9 198 32 109 72 127 241 35 337 -17 18 -96 71 -176 119 -80 48 -151 91 -159
96 -12 8 -7 21 26 73 310 482 559 1133 648 1698 3 19 7 46 10 60 2 14 7 45 10
70 4 25 8 56 10 70 2 14 6 54 10 90 3 36 8 88 11 115 l5 51 -128 56 c-181 80
-308 129 -458 177 -220 71 -297 105 -301 131 -16 115 -30 149 -74 181 -31 23
-89 31 -132 18 -19 -5 -56 -33 -87 -64 -37 -38 -59 -54 -70 -50 -43 17 -129
17 -164 0 -23 -11 -49 -15 -78 -11 -24 3 -47 5 -52 5 -4 1 -1 11 7 24 53 83
-7 207 -107 222 -12 2 -59 9 -105 15 l-82 12 -45 92 c-24 50 -50 98 -57 107
-41 51 -142 64 -199 26z"/>
</g>
</svg>
